<svg xmlns="http://www.w3.org/2000/svg" version="1.1" xmlns:xlink="http://www.w3.org/1999/xlink" xmlns:svgjs="http://svgjs.dev/svgjs" width="299.06" height="299.06"><svg id="SvgjsSvg1142" xmlns="http://www.w3.org/2000/svg" viewBox="0 0 299.06 299.06">
  <defs>
    <style>
      .cls-1 {
        fill: #fffcf5;
      }

      .cls-2 {
        fill: #668568;
      }
    </style>
  </defs>
  <g id="SvgjsG1141" data-name="Layer_2">
    <circle class="cls-2" cx="149.53" cy="149.53" r="149.53"></circle>
    <path class="cls-1" d="M208.66,93.47h-23.09c-2.03-15.15-9.37-22.73-22-22.73-8.13,0-14.27,1.91-18.41,5.74-4.14,3.82-6.21,9.53-6.21,17.1,0,5.67,2.29,10.98,6.86,15.93l49.24,53.96c9.08,9.92,13.62,20.57,13.62,31.97v11.47c0,12.25-4.54,22.86-13.62,31.82-9.08,8.96-20.01,13.44-32.79,13.44h-23.31c-15.4,0-26.98-3.79-34.75-11.37-7.77-7.58-11.66-18.87-11.66-33.89h23.31c-.15,1.56-.22,2.8-.22,3.72,0,6.16,2.43,10.83,7.3,14.02,4.86,3.19,10.2,4.78,16.01,4.78,8.28,0,14.23-1.95,17.87-5.84,3.63-3.89,5.45-9.56,5.45-17,0-5.74-2.29-11.05-6.86-15.93l-49.24-53.75c-9.08-9.84-13.62-20.5-13.62-31.97v-11.47c0-12.32,4.54-22.94,13.62-31.87,9.08-8.92,20.01-13.38,32.79-13.38h23.31c29.05,0,44.52,15.08,46.41,45.25Z"></path>
  </g>
</svg><style>@media (prefers-color-scheme: light) { :root { filter: none; } }
@media (prefers-color-scheme: dark) { :root { filter: none; } }
</style></svg>