<svg viewBox="0 0 362.18 22" xmlns="http://www.w3.org/2000/svg"><path d="m44.07 11.89c-11.12 2.63-23.26 6.26-34.79 4.56-5.17-.76-9.56-4.41-7.43-10.1 1.21-3.22 3.79-4.28 7-4.06 11.97.83 24.14 4.69 35.67 7.86.84.23.52-2.09-.28-2.31-11.26-3.1-22.9-6.53-34.55-7.76-5.06-.53-8.87 1.42-9.58 6.93-.79 6.13 3.06 10.69 8.98 11.67 11.78 1.96 24.25-1.8 35.61-4.48.81-.19.22-2.51-.62-2.31z" fill="#5e5838"/><path d="m314.52 15.9c10.33 2.55 20.86 4.27 31.45 5.2 3.57.31 7.15.65 10.73.81.94.04 2.12.25 2.98-.17 2.72-1.31 2.44-6.46 2.45-8.81.02-2.54.48-7.47-1.85-9.38-1.41-1.16-3.75-.71-5.43-.63-4.19.19-8.38.46-12.56.75-9.23.65-19.37.89-28.18 4-.98.35-.34 2.65.62 2.31 6.06-2.13 12.83-2.69 19.18-3.28 7.59-.7 15.26-1.35 22.89-1.52.61-.01 1.5-.18 2.07.02 1.67.59 1.52 2.64 1.61 4.23.15 2.58 1.08 9.66-2.59 10.19-4.47.65-9.88-.65-14.29-1.06-9.85-.9-19.68-2.63-29.29-5.01-1.04-.26-.75 2.1.21 2.33z" fill="#5e5838"/><path d="m268.4 4.88c-22.23-1.99-54.62-3.25-90.68-3.28-41.15-.03-77.51 1.57-99.47 4.03.13 1.82.2 3.65.2 5.5s-.07 3.69-.21 5.5c21.95 2.49 58.31 4.13 99.46 4.16 36.06.02 68.45-1.2 90.69-3.16-.18-2.1-.28-4.23-.28-6.38s.1-4.28.29-6.38z" fill="#ebc99a"/><path d="m44.38 7.75v6.67l33.86 2.21c.14-1.82.21-3.65.21-5.5s-.07-3.69-.2-5.5z" fill="#d59944"/><path d="m268.11 11.26c0 2.15.1 4.28.28 6.38l46.03-1.46v-4.89s0-4.7 0-4.7l-46.03-1.7c-.18 2.1-.28 4.23-.29 6.38z" fill="#d59944"/><g fill="#5e5838" opacity=".31"><path d="m40.26 8.96c1.28-.31 2.56-.63 3.82-.92.11-.03.21 0 .31.04v-.17s-.09-.05-.14-.07c-11.28-3.1-22.91-6.53-34.56-7.75-3.36-.36-6.16.39-7.88 2.54-.62 1.72-.64 3.25-.22 4.56.08-.28.16-.56.26-.84 1.21-3.22 3.79-4.28 7-4.06 10.5.73 21.16 3.79 31.4 6.67z"/><path d="m360.49 9.44c.03.52.09 1.22.14 2.01.21-2.16-.06-4.58-.14-5.87-.03-.61-.04-1.3-.12-1.94-.03-.03-.05-.06-.09-.08-1.41-1.16-3.75-.71-5.43-.63-4.19.19-8.38.46-12.56.75-9.12.65-19.13.89-27.87 3.89v2.16c.21.05.42.1.63.15 5.97-2.04 12.62-2.6 18.86-3.17 7.59-.7 15.26-1.35 22.89-1.52.61-.01 1.5-.18 2.07.02 1.67.59 1.52 2.64 1.61 4.23z"/><path d="m44.38 10.96v.98c-.1-.05-.2-.07-.31-.04-11.12 2.63-23.26 6.26-34.79 4.56-4.02-.59-7.55-2.94-7.93-6.63-.57-.97-.97-2.05-1.18-3.22-.02.14-.05.26-.07.4-.79 6.13 3.06 10.69 8.98 11.67 11.78 1.96 23.94-1.72 35.3-4.41.2-.05 0-.27 0 .15l33.86 2.21c21.95 2.49 58.31 4.13 99.46 4.16 36.06.02 68.45-1.2 90.69-3.16l46.03-1.46v-.32s.07.03.1.04c10.33 2.55 20.86 4.27 31.45 5.2 3.57.31 7.15.65 10.73.81.94.04 2.12.25 2.98-.16 2.72-1.31 2.44-6.46 2.45-8.81 0-1.1.1-2.66 0-4.22v.36c-.01 2.21.24 6.91-2.01 8.54-.42 1.07-1.1 1.84-2.22 2.01-4.47.65-9.88-.65-14.29-1.06-9.82-.9-19.61-2.62-29.19-4.98v-1.27s-46.03 1.46-46.03 1.46c-22.24 1.96-54.62 3.18-90.69 3.16-41.15-.03-77.51-1.67-99.46-4.16l-26.04-1.36"/></g></svg>