<?xml version="1.0" encoding="UTF-8"?>
<svg xmlns="http://www.w3.org/2000/svg" viewBox="0 0 376.86 26.92">
  <defs>
    <style>
      .cls-1 {
        fill: #98927c;
      }

      .cls-2 {
        mix-blend-mode: multiply;
        opacity: .56;
      }

      .cls-3 {
        isolation: isolate;
      }

      .cls-4 {
        fill: #d59944;
      }

      .cls-5 {
        fill: #ebc99a;
      }

      .cls-6 {
        fill: #5e5838;
      }
    </style>
  </defs>
  <g class="cls-3">
    <g id="Layer_2" data-name="Layer 2">
      <g id="Layer_1-2" data-name="Layer 1">
        <g id="trimmingtool">
          <g>
            <path class="cls-6" d="M45.86,14.68c-11.57,3.26-24.19,7.76-36.2,5.66C4.28,19.4-.29,14.89,1.92,7.85c1.25-3.98,3.94-5.29,7.29-5.02,12.46,1.01,25.12,5.78,37.12,9.68.88.28.54-2.59-.29-2.86C34.31,5.84,22.2,1.61,10.08.1,4.8-.55.84,1.86.11,8.67c-.82,7.57,3.19,13.22,9.35,14.43,12.26,2.41,25.23-2.24,37.05-5.57.85-.24.23-3.1-.64-2.86h0Z"/>
            <path class="cls-6" d="M327.28,19.41c10.75,3.14,21.71,5.26,32.73,6.4,3.72.39,7.44.8,11.16,1,.97.05,2.21.3,3.1-.21,2.83-1.62,2.53-7.99,2.55-10.89.02-3.14.49-9.23-1.93-11.6-1.47-1.44-3.9-.87-5.65-.78-4.36.24-8.72.57-13.07.94-9.61.82-20.16,1.12-29.32,4.96-1.02.43-.35,3.27.64,2.86,6.3-2.64,13.35-3.34,19.96-4.07,7.9-.87,15.88-1.69,23.81-1.9.63-.02,1.56-.23,2.16.02,1.73.73,1.58,3.27,1.68,5.23.15,3.19,1.13,11.94-2.69,12.6-4.65.81-10.28-.8-14.87-1.29-10.25-1.11-20.48-3.24-30.48-6.17-1.09-.32-.78,2.59.22,2.88h0Z"/>
            <g>
              <path class="cls-5" d="M279.28,5.82c-23.14-2.44-56.83-3.98-94.36-3.98-42.82,0-80.65,2-103.5,5.06.14,2.24.21,4.51.21,6.8s-.07,4.56-.21,6.8c22.85,3.06,60.68,5.06,103.5,5.06,37.53,0,71.22-1.54,94.36-3.98-.19-2.6-.29-5.23-.29-7.88s.1-5.29.29-7.88Z"/>
              <path class="cls-4" d="M46.18,9.91v7s35.24,3.61,35.24,3.61c.14-2.24.21-4.51.21-6.8s-.07-4.56-.21-6.8l-35.24,3Z"/>
              <path class="cls-4" d="M278.98,13.71c0,2.66.1,5.29.29,7.88l47.89-1.84v-6.04s0-5.82,0-5.82l-47.89-2.07c-.19,2.6-.29,5.23-.29,7.88Z"/>
            </g>
          </g>
          <g class="cls-2">
            <path class="cls-6" d="M41.89,11.05c1.34-.39,2.66-.78,3.97-1.14.11-.03.22,0,.32.05v-.21s-.1-.07-.15-.08C34.31,5.84,22.2,1.61,10.08.1,6.58-.33,3.66.6,1.88,3.25c-.64,2.12-.66,4.02-.23,5.64.08-.34.16-.69.27-1.04,1.25-3.98,3.94-5.29,7.29-5.02,10.93.89,22.02,4.66,32.68,8.22Z"/>
            <path class="cls-6" d="M375.1,11.38c.03.64.09,1.51.15,2.48.21-2.67-.07-5.66-.15-7.25-.04-.76-.04-1.6-.13-2.4-.03-.03-.06-.07-.09-.1-1.47-1.44-3.9-.87-5.65-.78-4.36.24-8.72.57-13.07.94-9.49.81-19.91,1.12-29,4.84v2.67c.22.06.44.12.66.19,6.21-2.53,13.13-3.22,19.62-3.94,7.9-.87,15.88-1.69,23.81-1.9.63-.02,1.56-.23,2.16.02,1.73.73,1.58,3.27,1.68,5.23Z"/>
            <path class="cls-1" d="M376.82,10.94c-.01,2.74.25,8.55-2.09,10.56-.43,1.32-1.15,2.28-2.31,2.48-4.65.81-10.28-.8-14.87-1.29-10.22-1.11-20.41-3.23-30.37-6.14v-1.58s-47.89,1.84-47.89,1.84c-23.14,2.44-56.83,3.98-94.36,3.98-42.82,0-80.65-2-103.5-5.06l-34.54-3.54c-.05.29-.17.5-.37.56-.11.03-.22.06-.32.09v1.87c-.1-.06-.21-.08-.32-.05-11.57,3.26-24.19,7.76-36.2,5.66-4.18-.73-7.86-3.63-8.26-8.18-.59-1.2-1.01-2.53-1.23-3.98-.02.17-.05.33-.07.5-.82,7.57,3.19,13.22,9.35,14.43,12.26,2.41,25.23-2.24,37.05-5.57.21-.06.32-.27.37-.56l34.54,3.54c22.85,3.06,60.68,5.06,103.5,5.06,37.53,0,71.22-1.54,94.36-3.98l47.89-1.84v-.4s.07.04.11.05c10.75,3.14,21.71,5.26,32.73,6.4,3.72.39,7.44.8,11.16,1,.97.05,2.21.3,3.1-.21,2.83-1.62,2.53-7.99,2.55-10.89,0-1.36.1-3.29,0-5.22,0,.15,0,.31,0,.45Z"/>
          </g>
        </g>
      </g>
    </g>
  </g>
</svg>